<svg width="38" height="42" viewBox="0 0 38 42" fill="none" xmlns="http://www.w3.org/2000/svg">
<path d="M33.5833 4.33332H31.5V0.166656H27.3333V4.33332H10.6667V0.166656H6.5V4.33332H4.41667C2.10417 4.33332 0.270833 6.20832 0.270833 8.49999L0.25 37.6667C0.25 38.7717 0.688987 39.8315 1.47039 40.6129C2.25179 41.3943 3.3116 41.8333 4.41667 41.8333H33.5833C35.875 41.8333 37.75 39.9583 37.75 37.6667V8.49999C37.75 6.20832 35.875 4.33332 33.5833 4.33332ZM33.5833 37.6667H4.41667V16.8333H33.5833V37.6667ZM33.5833 12.6667H4.41667V8.49999H33.5833V12.6667ZM19 23.0833H29.4167V33.5H19V23.0833Z" fill="#5F2466"/>
</svg>
