<svg width="137" height="56" viewBox="0 0 137 56" fill="none" xmlns="http://www.w3.org/2000/svg">
<rect width="137" height="56" rx="10" fill="#5F2466"/>
<path d="M35.0312 27.5547V32.0625C34.8542 32.276 34.5807 32.5078 34.2109 32.7578C33.8411 33.0026 33.3646 33.2135 32.7812 33.3906C32.1979 33.5677 31.4922 33.6562 30.6641 33.6562C29.9297 33.6562 29.2604 33.5365 28.6562 33.2969C28.0521 33.0521 27.5312 32.6953 27.0938 32.2266C26.6615 31.7578 26.3281 31.1849 26.0938 30.5078C25.8594 29.8255 25.7422 29.0469 25.7422 28.1719V27.4609C25.7422 26.5859 25.8542 25.8073 26.0781 25.125C26.3073 24.4427 26.6328 23.8672 27.0547 23.3984C27.4766 22.9297 27.9792 22.5729 28.5625 22.3281C29.1458 22.0833 29.7943 21.9609 30.5078 21.9609C31.4974 21.9609 32.3099 22.1224 32.9453 22.4453C33.5807 22.763 34.0651 23.2057 34.3984 23.7734C34.737 24.3359 34.9453 24.9818 35.0234 25.7109H32.75C32.6927 25.3255 32.5833 24.9896 32.4219 24.7031C32.2604 24.4167 32.0286 24.1927 31.7266 24.0312C31.4297 23.8698 31.0443 23.7891 30.5703 23.7891C30.1797 23.7891 29.8307 23.8698 29.5234 24.0312C29.2214 24.1875 28.9661 24.4193 28.7578 24.7266C28.5495 25.0339 28.3906 25.4141 28.2812 25.8672C28.1719 26.3203 28.1172 26.8464 28.1172 27.4453V28.1719C28.1172 28.7656 28.1745 29.2917 28.2891 29.75C28.4036 30.2031 28.5729 30.5859 28.7969 30.8984C29.026 31.2057 29.3073 31.4375 29.6406 31.5938C29.974 31.75 30.362 31.8281 30.8047 31.8281C31.1745 31.8281 31.4818 31.7969 31.7266 31.7344C31.9766 31.6719 32.1771 31.5964 32.3281 31.5078C32.4844 31.4141 32.6042 31.3255 32.6875 31.2422V29.2266H30.5469V27.5547H35.0312ZM40.6719 33.6562C40.0156 33.6562 39.4271 33.5521 38.9062 33.3438C38.3854 33.1302 37.9427 32.8359 37.5781 32.4609C37.2188 32.0859 36.9427 31.651 36.75 31.1562C36.5573 30.6562 36.4609 30.125 36.4609 29.5625V29.25C36.4609 28.6094 36.5521 28.0234 36.7344 27.4922C36.9167 26.9609 37.1771 26.5 37.5156 26.1094C37.8594 25.7188 38.276 25.4193 38.7656 25.2109C39.2552 24.9974 39.8073 24.8906 40.4219 24.8906C41.0208 24.8906 41.5521 24.9896 42.0156 25.1875C42.4792 25.3854 42.8672 25.6667 43.1797 26.0312C43.4974 26.3958 43.737 26.8333 43.8984 27.3438C44.0599 27.849 44.1406 28.4115 44.1406 29.0312V29.9688H37.4219V28.4688H41.9297V28.2969C41.9297 27.9844 41.8724 27.7057 41.7578 27.4609C41.6484 27.2109 41.4818 27.013 41.2578 26.8672C41.0339 26.7214 40.7474 26.6484 40.3984 26.6484C40.1016 26.6484 39.8464 26.7135 39.6328 26.8438C39.4193 26.974 39.2448 27.1562 39.1094 27.3906C38.9792 27.625 38.8802 27.901 38.8125 28.2188C38.75 28.5312 38.7188 28.875 38.7188 29.25V29.5625C38.7188 29.901 38.7656 30.2135 38.8594 30.5C38.9583 30.7865 39.0964 31.0339 39.2734 31.2422C39.4557 31.4505 39.6745 31.612 39.9297 31.7266C40.1901 31.8411 40.4844 31.8984 40.8125 31.8984C41.2188 31.8984 41.5964 31.8203 41.9453 31.6641C42.2995 31.5026 42.6042 31.2604 42.8594 30.9375L43.9531 32.125C43.776 32.3802 43.5339 32.625 43.2266 32.8594C42.9245 33.0938 42.5599 33.2865 42.1328 33.4375C41.7057 33.5833 41.2188 33.6562 40.6719 33.6562ZM49.5625 25.0469V26.6406H44.6406V25.0469H49.5625ZM45.8594 22.9609H48.1094V30.9531C48.1094 31.1979 48.1406 31.3854 48.2031 31.5156C48.2708 31.6458 48.3698 31.737 48.5 31.7891C48.6302 31.8359 48.7943 31.8594 48.9922 31.8594C49.1328 31.8594 49.2578 31.8542 49.3672 31.8438C49.4818 31.8281 49.5781 31.8125 49.6562 31.7969L49.6641 33.4531C49.4714 33.5156 49.263 33.5651 49.0391 33.6016C48.8151 33.638 48.5677 33.6562 48.2969 33.6562C47.8021 33.6562 47.3698 33.5755 47 33.4141C46.6354 33.2474 46.3542 32.9818 46.1562 32.6172C45.9583 32.2526 45.8594 31.7734 45.8594 31.1797V22.9609ZM57.2031 25.0469V33.5H54.9453V25.0469H57.2031ZM54.8047 22.8438C54.8047 22.5156 54.9193 22.2448 55.1484 22.0312C55.3776 21.8177 55.6849 21.7109 56.0703 21.7109C56.4505 21.7109 56.7552 21.8177 56.9844 22.0312C57.2188 22.2448 57.3359 22.5156 57.3359 22.8438C57.3359 23.1719 57.2188 23.4427 56.9844 23.6562C56.7552 23.8698 56.4505 23.9766 56.0703 23.9766C55.6849 23.9766 55.3776 23.8698 55.1484 23.6562C54.9193 23.4427 54.8047 23.1719 54.8047 22.8438ZM61.2656 26.8516V33.5H59.0156V25.0469H61.125L61.2656 26.8516ZM60.9375 28.9766H60.3281C60.3281 28.3516 60.4089 27.7891 60.5703 27.2891C60.7318 26.7839 60.9583 26.3542 61.25 26C61.5417 25.6406 61.888 25.3672 62.2891 25.1797C62.6953 24.987 63.1484 24.8906 63.6484 24.8906C64.0443 24.8906 64.4062 24.9479 64.7344 25.0625C65.0625 25.1771 65.3438 25.3594 65.5781 25.6094C65.8177 25.8594 66 26.1901 66.125 26.6016C66.2552 27.013 66.3203 27.5156 66.3203 28.1094V33.5H64.0547V28.1016C64.0547 27.7266 64.0026 27.4349 63.8984 27.2266C63.7943 27.0182 63.6406 26.8724 63.4375 26.7891C63.2396 26.7005 62.9948 26.6562 62.7031 26.6562C62.401 26.6562 62.138 26.7161 61.9141 26.8359C61.6953 26.9557 61.513 27.1224 61.3672 27.3359C61.2266 27.5443 61.1198 27.7891 61.0469 28.0703C60.974 28.3516 60.9375 28.6536 60.9375 28.9766ZM76.1562 25.0469V26.6406H71.2344V25.0469H76.1562ZM72.4531 22.9609H74.7031V30.9531C74.7031 31.1979 74.7344 31.3854 74.7969 31.5156C74.8646 31.6458 74.9635 31.737 75.0938 31.7891C75.224 31.8359 75.388 31.8594 75.5859 31.8594C75.7266 31.8594 75.8516 31.8542 75.9609 31.8438C76.0755 31.8281 76.1719 31.8125 76.25 31.7969L76.2578 33.4531C76.0651 33.5156 75.8568 33.5651 75.6328 33.6016C75.4089 33.638 75.1615 33.6562 74.8906 33.6562C74.3958 33.6562 73.9635 33.5755 73.5938 33.4141C73.2292 33.2474 72.9479 32.9818 72.75 32.6172C72.5521 32.2526 72.4531 31.7734 72.4531 31.1797V22.9609ZM76.875 29.3594V29.1953C76.875 28.5755 76.9635 28.0052 77.1406 27.4844C77.3177 26.9583 77.5755 26.5026 77.9141 26.1172C78.2526 25.7318 78.6693 25.4323 79.1641 25.2188C79.6589 25 80.2266 24.8906 80.8672 24.8906C81.5078 24.8906 82.0781 25 82.5781 25.2188C83.0781 25.4323 83.4974 25.7318 83.8359 26.1172C84.1797 26.5026 84.4401 26.9583 84.6172 27.4844C84.7943 28.0052 84.8828 28.5755 84.8828 29.1953V29.3594C84.8828 29.974 84.7943 30.5443 84.6172 31.0703C84.4401 31.5911 84.1797 32.0469 83.8359 32.4375C83.4974 32.8229 83.0807 33.1224 82.5859 33.3359C82.0911 33.5495 81.5234 33.6562 80.8828 33.6562C80.2422 33.6562 79.6719 33.5495 79.1719 33.3359C78.6771 33.1224 78.2578 32.8229 77.9141 32.4375C77.5755 32.0469 77.3177 31.5911 77.1406 31.0703C76.9635 30.5443 76.875 29.974 76.875 29.3594ZM79.125 29.1953V29.3594C79.125 29.7135 79.1562 30.0443 79.2188 30.3516C79.2812 30.6589 79.3802 30.9297 79.5156 31.1641C79.6562 31.3932 79.8385 31.5729 80.0625 31.7031C80.2865 31.8333 80.5599 31.8984 80.8828 31.8984C81.1953 31.8984 81.4635 31.8333 81.6875 31.7031C81.9115 31.5729 82.0911 31.3932 82.2266 31.1641C82.362 30.9297 82.4609 30.6589 82.5234 30.3516C82.5911 30.0443 82.625 29.7135 82.625 29.3594V29.1953C82.625 28.8516 82.5911 28.5286 82.5234 28.2266C82.4609 27.9193 82.3594 27.6484 82.2188 27.4141C82.0833 27.1745 81.9036 26.987 81.6797 26.8516C81.4557 26.7161 81.1849 26.6484 80.8672 26.6484C80.5495 26.6484 80.2786 26.7161 80.0547 26.8516C79.8359 26.987 79.6562 27.1745 79.5156 27.4141C79.3802 27.6484 79.2812 27.9193 79.2188 28.2266C79.1562 28.5286 79.125 28.8516 79.125 29.1953ZM91.2656 31.4766V25.0469H93.5156V33.5H91.3984L91.2656 31.4766ZM91.5156 29.7422L92.1797 29.7266C92.1797 30.2891 92.1146 30.8125 91.9844 31.2969C91.8542 31.776 91.6589 32.1927 91.3984 32.5469C91.138 32.8958 90.8099 33.1693 90.4141 33.3672C90.0182 33.5599 89.5521 33.6562 89.0156 33.6562C88.6042 33.6562 88.224 33.599 87.875 33.4844C87.5312 33.3646 87.2344 33.1797 86.9844 32.9297C86.7396 32.6745 86.5469 32.349 86.4062 31.9531C86.2708 31.5521 86.2031 31.0703 86.2031 30.5078V25.0469H88.4531V30.5234C88.4531 30.7734 88.4818 30.9844 88.5391 31.1562C88.6016 31.3281 88.6875 31.4688 88.7969 31.5781C88.9062 31.6875 89.0339 31.7656 89.1797 31.8125C89.3307 31.8594 89.4974 31.8828 89.6797 31.8828C90.1432 31.8828 90.5078 31.7891 90.7734 31.6016C91.0443 31.4141 91.2344 31.1589 91.3438 30.8359C91.4583 30.5078 91.5156 30.1432 91.5156 29.7422ZM98.7266 31.8984C99.0026 31.8984 99.2474 31.8464 99.4609 31.7422C99.6745 31.6328 99.8411 31.4818 99.9609 31.2891C100.086 31.0911 100.151 30.8594 100.156 30.5938H102.273C102.268 31.1875 102.109 31.7161 101.797 32.1797C101.484 32.638 101.065 33 100.539 33.2656C100.013 33.526 99.4245 33.6562 98.7734 33.6562C98.1172 33.6562 97.5443 33.5469 97.0547 33.3281C96.5703 33.1094 96.1667 32.8073 95.8438 32.4219C95.5208 32.0312 95.2786 31.5781 95.1172 31.0625C94.9557 30.5417 94.875 29.9844 94.875 29.3906V29.1641C94.875 28.5651 94.9557 28.0078 95.1172 27.4922C95.2786 26.9714 95.5208 26.5182 95.8438 26.1328C96.1667 25.7422 96.5703 25.4375 97.0547 25.2188C97.5391 25 98.1068 24.8906 98.7578 24.8906C99.4505 24.8906 100.057 25.0234 100.578 25.2891C101.104 25.5547 101.516 25.9349 101.812 26.4297C102.115 26.9193 102.268 27.5 102.273 28.1719H100.156C100.151 27.8906 100.091 27.6354 99.9766 27.4062C99.8672 27.1771 99.7057 26.9948 99.4922 26.8594C99.2839 26.7188 99.026 26.6484 98.7188 26.6484C98.3906 26.6484 98.1224 26.7188 97.9141 26.8594C97.7057 26.9948 97.5443 27.1823 97.4297 27.4219C97.3151 27.6562 97.2344 27.9245 97.1875 28.2266C97.1458 28.5234 97.125 28.8359 97.125 29.1641V29.3906C97.125 29.7188 97.1458 30.0339 97.1875 30.3359C97.2292 30.638 97.3073 30.9062 97.4219 31.1406C97.5417 31.375 97.7057 31.5599 97.9141 31.6953C98.1224 31.8307 98.3932 31.8984 98.7266 31.8984ZM105.773 21.5V33.5H103.523V21.5H105.773ZM105.453 28.9766H104.836C104.841 28.388 104.919 27.8464 105.07 27.3516C105.221 26.8516 105.438 26.4193 105.719 26.0547C106 25.6849 106.336 25.3984 106.727 25.1953C107.122 24.9922 107.56 24.8906 108.039 24.8906C108.456 24.8906 108.833 24.9505 109.172 25.0703C109.516 25.1849 109.81 25.3724 110.055 25.6328C110.305 25.888 110.497 26.224 110.633 26.6406C110.768 27.0573 110.836 27.5625 110.836 28.1562V33.5H108.57V28.1406C108.57 27.7656 108.516 27.4714 108.406 27.2578C108.302 27.0391 108.148 26.8854 107.945 26.7969C107.747 26.7031 107.503 26.6562 107.211 26.6562C106.888 26.6562 106.612 26.7161 106.383 26.8359C106.159 26.9557 105.979 27.1224 105.844 27.3359C105.708 27.5443 105.609 27.7891 105.547 28.0703C105.484 28.3516 105.453 28.6536 105.453 28.9766Z" fill="white"/>
</svg>
