<svg width="50" height="50" viewBox="0 0 50 50" fill="none" xmlns="http://www.w3.org/2000/svg">
<path d="M30.3961 36.61C29.5954 34.9588 28.5604 33.757 26.7735 34.4898L23.2486 35.799C20.4268 37.1083 19.0207 35.799 17.6147 33.8352L11.2777 19.3944C10.4868 17.7432 10.8969 16.1897 12.6837 15.4569L17.6147 13.493C19.4015 12.7602 19.1184 11.2067 18.3177 9.55551L14.0898 1.6805C13.2891 0.0292866 11.6487 -0.371303 9.86186 0.361483C6.28814 1.8466 3.32957 4.15243 1.41578 7.58187C-0.927639 11.7734 0.244071 17.5966 0.712755 20.049C1.18144 22.5014 2.82183 26.7907 4.94068 31.2069C7.05952 35.6232 8.91473 39.0917 10.5746 41.0556C12.2346 43.0194 16.2086 48.3932 21.1396 49.5852C25.182 50.5622 29.5368 49.7415 33.1105 48.2662C34.8974 47.5334 34.9072 45.9799 34.1065 44.3189L30.3961 36.61ZM40.3751 11.5389H34.6045L42.2987 19.2381H24.9964V23.0876H42.2987L34.6142 30.777H40.3849L50.0027 21.1531L40.3751 11.5389Z" fill="#5F2466"/>
</svg>
